PathFileType	4	(X/Y/Z)	 s07c0401.trc
DataRate	CameraRate	NumFrames	NumMarkers	Units	OrigDataRate	OrigDataStartFrame	OrigNumFrames
200	200	4	48	mm	200	1001	2000
Frame#	Time	racr			lacr			c7			jug			rlel			rdr			llel			ldr			s2			lic			ric			lasi			rasi			rpsi			lpsi			rgt			lgt			rth1			rth2			rth3			rth4			rlfc			rmfc			rsh1			rsh2			rsh3			rsh4			rlmal			rcal			rtoe			rmt5			lth1			lth2			lth4			lth3			llfc			lmfc			lsh1			lsh2			lsh3			lsh4			llmal			lcal			ltoe			lmt5			SBIKE			LBIKE			RBIKE			
		X1	Y1	Z1	X2	Y2	Z2	X3	Y3	Z3	X4	Y4	Z4	X5	Y5	Z5	X6	Y6	Z6	X7	Y7	Z7	X8	Y8	Z8	X9	Y9	Z9	X10	Y10	Z10	X11	Y11	Z11	X12	Y12	Z12	X13	Y13	Z13	X14	Y14	Z14	X15	Y15	Z15	X16	Y16	Z16	X17	Y17	Z17	X18	Y18	Z18	X19	Y19	Z19	X20	Y20	Z20	X21	Y21	Z21	X22	Y22	Z22	X23	Y23	Z23	X24	Y24	Z24	X25	Y25	Z25	X26	Y26	Z26	X27	Y27	Z27	X28	Y28	Z28	X29	Y29	Z29	X30	Y30	Z30	X31	Y31	Z31	X32	Y32	Z32	X33	Y33	Z33	X34	Y34	Z34	X35	Y35	Z35	X36	Y36	Z36	X37	Y37	Z37	X38	Y38	Z38	X39	Y39	Z39	X40	Y40	Z40	X41	Y41	Z41	X42	Y42	Z42	X43	Y43	Z43	X44	Y44	Z44	X45	Y45	Z45	X46	Y46	Z46	X47	Y47	Z47	X48	Y48	Z48	
1001	5.0050	764.925627	1361.537304	-74.690941	768.647184	1369.757708	-387.823202	764.616309	1420.745849	-228.488072	685.663519	1289.498663	-241.694746	507.147141	1134.568543	46.576585	692.144134	943.179817	-46.767604	502.309873	1152.451475	-492.222364	690.089126	944.599732	-415.465699	152.635313	1311.657310	-183.662011	293.334384	1355.077894	-344.826541	349.029783	1293.841656	-62.363542	309.752708	1271.652146	-333.528819	351.599295	1241.133629	-88.358396	198.087117	1334.961633	-136.304323	189.527851	1360.498520	-239.929983	272.822410	1170.647512	-29.322307	213.744612	1214.574623	-382.889816	340.897601	1034.824675	-47.266052	385.171793	960.709632	-63.841967	398.874571	878.080671	-67.375276	416.312536	975.586472	-85.562410	407.060335	734.701510	-98.031850	382.947768	727.380641	-200.957445	302.198392	635.709980	-66.712302	257.236714	561.247303	-79.531857	182.045567	516.028481	-71.132180	265.669620	552.353369	-120.138266	81.362915	423.166170	-67.340099	17.403917	464.329806	-98.578747	107.704610	188.283783	-124.625653	51.605743	246.012565	-51.327215	286.090404	1109.583739	-397.416509	360.354029	1062.744379	-405.893688	387.369663	1086.511323	-399.995671	401.962552	983.911339	-407.015428	506.335409	837.692267	-385.327042	500.975177	817.643855	-287.930407	423.973805	711.335361	-405.241107	397.203533	631.341426	-385.658628	331.237087	569.884684	-391.397316	400.640904	633.041177	-343.423689	249.246874	461.034806	-390.754321	172.463626	431.173209	-358.621205	456.119166	373.441273	-355.989596	373.334680	359.039339	-421.123444	-259.079047	979.012452	-231.442933	-76.114067	83.535365	-435.565550	-81.914080	79.972485	-38.101265	
1002	5.0100	764.701395	1363.256542	-74.255014	768.987775	1368.138272	-387.610011	764.613931	1420.746771	-228.574446	686.060713	1289.153454	-241.050561	507.912220	1135.289379	46.937733	692.470625	943.487053	-46.087272	501.829752	1151.322433	-492.787871	690.224384	944.595270	-415.305598	152.893824	1311.326684	-182.946237	292.885177	1353.733357	-344.972832	349.629141	1294.684664	-62.327181	298.786800	1266.079441	-321.824577	352.227396	1241.936913	-88.397182	198.447102	1334.984759	-135.849617	189.441449	1359.862508	-239.698167	274.652535	1171.714074	-28.343570	212.474082	1213.073602	-381.918488	344.609199	1036.928704	-46.955882	389.688828	963.434012	-63.706216	404.369130	880.949544	-67.831366	420.887461	978.774137	-85.133065	413.321087	737.576879	-98.985669	388.732275	730.404884	-201.736459	307.779045	639.788282	-67.215907	261.077009	566.429108	-80.113631	184.860963	522.795589	-71.501194	269.092919	557.335335	-120.767292	82.494526	432.255878	-67.042384	19.555564	474.740897	-98.216335	104.621768	197.036546	-124.640095	49.509367	255.721374	-51.187369	282.952917	1106.909542	-396.899979	356.297514	1058.615994	-405.882933	383.852152	1081.943067	-400.161693	396.516947	979.133470	-406.816229	499.199469	832.242347	-386.058009	494.231589	811.663529	-288.665710	419.384542	704.753041	-405.699191	394.394021	624.012226	-386.239047	329.899349	561.185080	-391.949278	397.937367	625.675118	-343.906713	250.351478	450.588292	-391.282165	173.833616	419.489488	-358.637650	457.608623	363.074665	-356.092281	374.887925	348.176502	-421.148750	-259.121544	978.971985	-231.406731	-76.111413	83.533635	-435.565813	-81.914024	79.963941	-38.086687	
1003	5.0150	764.530539	1365.009301	-73.835331	769.268731	1366.727180	-387.390168	764.551435	1420.989460	-228.728745	686.718777	1288.856048	-240.219286	508.676492	1136.070583	47.349190	693.099699	943.753806	-45.066766	501.681853	1150.550661	-493.664266	690.438045	944.635014	-415.206957	153.107847	1310.752016	-182.091711	289.230731	1347.919435	-332.715485	350.173430	1295.258244	-62.260466	298.388116	1264.817913	-321.990382	352.781579	1242.534963	-88.398584	198.737668	1334.837086	-135.466308	189.403103	1359.020685	-239.459361	276.280253	1172.489645	-27.352921	211.303694	1211.397398	-380.879447	347.768731	1038.729664	-46.342839	393.800284	965.858776	-63.432112	409.264765	883.422452	-67.933885	424.921642	981.521856	-84.472712	419.950471	740.110666	-99.478189	394.354895	733.362421	-202.348230	313.082456	644.034990	-67.545595	264.614809	572.069092	-80.412779	188.822998	529.742231	-70.578286	272.180062	562.617930	-121.211123	83.081517	441.855290	-66.815019	20.854625	485.199009	-98.061883	102.715325	206.675418	-124.325272	47.883687	265.852893	-51.064787	279.987998	1104.038381	-396.353398	352.315077	1054.359649	-406.246899	380.329044	1077.369403	-400.607536	391.049709	974.076013	-406.538196	492.132672	826.319979	-386.310319	487.727200	805.721033	-289.165969	414.129483	697.983532	-406.134267	391.114018	616.718240	-386.971525	327.823782	552.443045	-392.292845	396.245086	617.538079	-345.125519	249.740036	440.992712	-394.096709	174.537875	408.249456	-358.366707	458.631000	352.256111	-355.940855	375.875594	337.217151	-421.053475	-259.190178	978.909211	-231.373587	-76.103999	83.511776	-435.560718	-81.939731	79.943755	-38.084595	
1004	5.0200	764.500669	1366.814664	-73.340627	769.511860	1365.685671	-387.174741	764.455500	1421.410868	-228.686802	687.535633	1288.630569	-239.256291	509.260634	1136.903866	47.619473	693.773929	944.158668	-44.031940	501.544068	1149.779600	-494.511122	690.717304	944.840329	-415.388345	153.389938	1310.040395	-181.501725	289.024501	1346.150543	-333.110162	350.697312	1295.418593	-62.374565	308.682866	1267.822801	-334.051928	353.104860	1243.001529	-88.363079	199.069118	1334.439322	-135.187372	189.484055	1357.952269	-238.862752	277.599119	1173.120484	-26.415385	210.319837	1209.521450	-379.876559	350.497097	1039.899682	-45.569095	397.534061	968.004732	-63.031840	413.897557	885.432016	-67.640943	428.342079	983.826936	-83.676202	426.260385	742.641943	-100.075557	399.833508	736.217789	-202.847715	318.117528	648.565451	-67.878713	268.604880	577.718515	-80.400608	189.999117	537.560459	-71.521381	275.013619	568.210867	-121.586524	83.338531	451.979496	-66.636343	21.569674	495.826330	-97.880429	101.901516	216.927114	-124.089100	46.967822	276.470565	-50.802569	277.163670	1100.916564	-395.755951	348.281532	1049.923040	-405.946310	376.899999	1072.227034	-400.901192	385.528390	968.735355	-406.105438	484.882944	820.120861	-386.397311	480.852660	799.021390	-289.442314	408.069752	691.235338	-406.566859	387.096567	609.239075	-387.866966	325.000536	543.652562	-392.301229	393.264353	609.511005	-345.999577	249.971490	430.340778	-393.798935	174.626888	397.308837	-358.262720	459.069304	341.210305	-355.765536	376.392028	326.532331	-421.072243	-259.221908	978.876076	-231.279925	-76.137263	83.476253	-435.546333	-81.924012	79.857418	-38.074067	
